Coordinates
version=1
nRows=29
nColumns=24
inDegrees=yes

Units are S.I. units (second, meters, Newtons, ...)
Angles are in degrees.

endheader
time	pelvis_tilt	pelvis_list	pelvis_rotation	pelvis_tx	pelvis_ty	pelvis_tz	hip_flexion_r	hip_adduction_r	hip_rotation_r	knee_angle_r	ankle_angle_r	subtalar_angle_r	mtp_angle_r	hip_flexion_l	hip_adduction_l	hip_rotation_l	knee_angle_l	ankle_angle_l	subtalar_angle_l	mtp_angle_l	lumbar_extension	lumbar_bending	lumbar_rotation
      3.85000000	     -7.66376724	      2.81382409	    -11.16589878	     -2.41562164	     -0.02331378	      0.46349083	     -7.70970903	     -1.09942245	      6.25182980	     -9.36364158	      6.13858052	      5.06160734	      6.63812361	     29.62886121	     -4.03371104	     -8.70420824	     -4.96541583	     -6.07746949	      5.32061173	     14.41278579	      6.41758361	     -0.32988213	     14.80256728
      3.85500000	     -7.66586731	      2.93079366	    -11.26305160	     -2.40898437	     -0.02367162	      0.46305342	     -7.87817655	     -1.37916491	      6.17497042	     -9.79760655	      5.97945143	      5.52493901	      6.98941932	     29.60982853	     -3.86384001	     -8.51292310	     -5.27352604	     -6.02405105	      5.33778912	     14.33065334	      6.54717413	     -0.41064812	     14.91247909
      3.86000000	     -7.68504212	      3.01664347	    -11.33729020	     -2.40227675	     -0.02403426	      0.46264092	     -8.05145488	     -1.60437273	      6.27276477	    -10.23058237	      5.69211133	      5.71974067	      7.08232246	     29.60755741	     -3.71295131	     -8.25864539	     -5.65537878	     -5.95892816	      5.35479401	     14.38581898	      6.69469159	     -0.46914650	     15.01265589
      3.86500000	     -7.72477552	      3.15363187	    -11.47204958	     -2.39548976	     -0.02436646	      0.46213612	     -8.12249081	     -1.91905007	      6.16558098	    -10.74246987	      5.47725378	      6.28387938	      7.64128797	     29.61620066	     -3.51542315	     -8.04934582	     -6.10304476	     -5.92461454	      5.26686230	     14.20772803	      6.87901439	     -0.54920746	     15.17733857
      3.87000000	     -7.75757465	      3.26211697	    -11.49435574	     -2.38858224	     -0.02471064	      0.46153845	     -8.24576661	     -2.18305933	      6.07792692	    -11.22432364	      5.14601984	      6.64705367	      8.05307620	     29.62428443	     -3.28046713	     -7.70069277	     -6.61722835	     -5.84223493	      5.26185112	     14.10098254	      7.05852183	     -0.62475097	     15.23768206
      3.87500000	     -7.77324786	      3.35707225	    -11.55354101	     -2.38163697	     -0.02501314	      0.46101809	     -8.37839474	     -2.42459191	      6.18809421	    -11.74727773	      4.74042769	      6.83957125	      8.15186141	     29.58272998	     -3.06631216	     -7.37887396	     -7.13369124	     -5.76940824	      5.30418137	     14.18583150	      7.21874361	     -0.69748302	     15.37123226
      3.88000000	     -7.85141585	      3.47038864	    -11.60675514	     -2.37461843	     -0.02537163	      0.46031711	     -8.38653339	     -2.70588842	      6.04602088	    -12.31810082	      4.35985304	      7.32499060	      8.82232284	     29.60442318	     -2.81526015	     -7.02471494	     -7.70271404	     -5.68863730	      5.35764692	     14.08896294	      7.44844587	     -0.75048876	     15.49030944
      3.88500000	     -7.86876817	      3.57811039	    -11.66192283	     -2.36752740	     -0.02565200	      0.45971387	     -8.47865564	     -2.96382148	      6.15466011	    -12.90590133	      3.87280523	      7.49853461	      8.90988223	     29.51131123	     -2.55389334	     -6.63761869	     -8.21832375	     -5.64460661	      5.48006792	     14.19635260	      7.61926582	     -0.82747407	     15.62715439
      3.89000000	     -7.96527930	      3.67437011	    -11.64300611	     -2.36035391	     -0.02603563	      0.45889623	     -8.44763840	     -3.21782949	      5.96199822	    -13.52658411	      3.36537440	      7.94373659	      9.69485257	     29.50624874	     -2.26255118	     -6.22672694	     -8.76483081	     -5.56596677	      5.71789480	     14.22166039	      7.87268346	     -0.87985495	     15.70016678
      3.89500000	     -8.03506426	      3.79120299	    -11.66152732	     -2.35312270	     -0.02636765	      0.45814192	     -8.43105246	     -3.48902248	      5.94136596	    -14.16816083	      2.75890080	      8.18206537	     10.28547414	     29.42198222	     -1.95481476	     -5.82053919	     -9.24342499	     -5.56239421	      5.97435994	     14.29861519	      8.10552487	     -0.95662732	     15.82831996
      3.90000000	     -8.09805520	      3.89456683	    -11.67845401	     -2.34589347	     -0.02668717	      0.45736336	     -8.38433319	     -3.74637253	      5.90986958	    -14.87630419	      2.12151481	      8.45218136	     10.82499117	     29.29954466	     -1.65047551	     -5.40095856	     -9.66786433	     -5.63769222	      6.26687319	     14.45236044	      8.32104939	     -1.02450963	     15.96076931
      3.90500000	     -8.13546012	      4.01437362	    -11.71978285	     -2.33862305	     -0.02697128	      0.45662415	     -8.32800418	     -4.01706049	      5.94736622	    -15.65653092	      1.44766115	      8.65579857	     11.05287063	     29.10958906	     -1.33158363	     -4.95948155	    -10.02508492	     -5.77963466	      6.55857077	     14.57830031	      8.51418934	     -1.11408544	     16.13610617
      3.91000000	     -8.25723047	      4.17076626	    -11.70336736	     -2.33134658	     -0.02732197	      0.45573007	     -8.11690726	     -4.33323403	      5.76563486	    -16.48552564	      0.73645246	      9.07840529	     11.98925859	     29.01060021	     -0.96258451	     -4.59242749	    -10.31454864	     -6.15906838	      6.82335905	     14.80145171	      8.79619531	     -1.23021465	     16.22769677
      3.91500000	     -8.34441535	      4.32950760	    -11.70986682	     -2.32407570	     -0.02759704	      0.45487683	     -7.91467261	     -4.64661181	      5.69046200	    -17.34144867	     -0.12356151	      9.29576161	     12.84722604	     28.83854025	     -0.59265559	     -4.13833351	    -10.52256203	     -6.70009574	      6.90899140	     14.98405154	      9.03811912	     -1.35640768	     16.34924975
      3.92000000	     -8.41919160	      4.50928527	    -11.70798962	     -2.31683547	     -0.02782425	      0.45402222	     -7.66871498	     -4.98197237	      5.58932839	    -18.27956184	     -1.02537911	      9.55865665	     13.62908136	     28.65740195	     -0.20371951	     -3.71342712	    -10.69909752	     -7.36493941	      6.92757825	     15.11525727	      9.26242933	     -1.51505687	     16.46548826
      3.92500000	     -8.49510623	      4.70851446	    -11.70445908	     -2.30962689	     -0.02800306	      0.45316605	     -7.36132525	     -5.33616212	      5.47148528	    -19.28848772	     -2.02188499	      9.82047969	     14.45153543	     28.48471913	      0.19894111	     -3.27552504	    -10.85772613	     -8.14325886	      6.77523121	     15.14933575	      9.48501027	     -1.69829151	     16.57118713
      3.93000000	     -8.57332758	      4.94794015	    -11.67018304	     -2.30248849	     -0.02812789	      0.45229558	     -6.99691260	     -5.72421853	      5.33744824	    -20.35571235	     -3.09552050	     10.05132355	     15.31617681	     28.36318437	      0.64454587	     -2.86437746	    -11.06653050	     -9.03801919	      6.44979476	     15.03324437	      9.70210620	     -1.93846491	     16.67922232
      3.93500000	     -8.64570562	      5.19178110	    -11.63903510	     -2.29539451	     -0.02819229	      0.45141447	     -6.57429918	     -6.11866329	      5.18682819	    -21.48948485	     -4.30876722	     10.25415669	     16.29522249	     28.25768883	      1.09455583	     -2.39230953	    -11.31879259	     -9.93305390	      5.85698059	     14.73920661	      9.90648755	     -2.18176757	     16.76016456
      3.94000000	     -8.70268144	      5.43752427	    -11.58542977	     -2.28835597	     -0.02818288	      0.45054436	     -6.11976140	     -6.50623551	      5.03594867	    -22.67456104	     -5.66443532	     10.38556781	     17.29181367	     28.18431304	      1.55401197	     -1.92363159	    -11.67290452	    -10.75073428	      5.10221158	     14.24660478	     10.08256125	     -2.44560315	     16.82433073
      3.94500000	     -8.74066906	      5.62680982	    -11.49739222	     -2.28142075	     -0.02810616	      0.44957214	     -5.65188866	     -6.83936940	      4.86604131	    -23.87575414	     -7.18911082	     10.50817340	     18.56374815	     28.13640246	      1.98966662	     -1.34952444	    -12.15641681	    -11.43494701	      4.11702301	     13.48421867	     10.20336794	     -2.65406041	     16.84483550
      3.95000000	     -8.78647668	      5.87270879	    -11.42246452	     -2.27449737	     -0.02801530	      0.44872629	     -5.10335508	     -7.20344043	      4.77556970	    -25.17113576	     -8.80614420	     10.47833887	     19.65172162	     28.14329205	      2.46102446	     -0.90209491	    -12.75026154	    -11.91475861	      3.13637644	     12.49144525	     10.34493607	     -2.93479637	     16.88675925
      3.95500000	     -8.82862194	      6.09615259	    -11.31597849	     -2.26762116	     -0.02791648	      0.44786818	     -4.51609249	     -7.52741659	      4.69653250	    -26.52339911	    -10.53773154	     10.36850704	     20.74949688	     28.17881694	      2.92808613	     -0.44448942	    -13.45497593	    -12.13802300	      2.16017402	     11.29909606	     10.46596222	     -3.20119904	     16.88496156
      3.96000000	     -8.84378370	      6.32017612	    -11.14125985	     -2.26077228	     -0.02781383	      0.44699523	     -3.92838219	     -7.84132597	      4.55472202	    -27.90386116	    -12.39271910	     10.11801112	     22.07439516	     28.22853826	      3.42424865	     -0.06315389	    -14.28520798	    -11.98655966	      1.47014807	      9.89610989	     10.54679559	     -3.50188971	     16.79939972
      3.96500000	     -8.87864729	      6.48212386	    -11.07318537	     -2.25405867	     -0.02769447	      0.44627022	     -3.23101824	     -8.04688638	      4.66330383	    -29.43101494	    -14.25956894	      9.85268946	     22.72644211	     28.25489372	      3.81042069	      0.33558501	    -15.06304948	    -11.81700256	      0.60757858	      8.77217517	     10.62152558	     -3.71205636	     16.83759751
      3.97000000	     -8.91483025	      6.69078821	    -10.86987727	     -2.24734248	     -0.02766557	      0.44543316	     -2.50389064	     -8.30097500	      4.56864216	    -30.99767348	    -16.15714916	      9.46175309	     23.77964360	     28.32936088	      4.29097464	      0.63833426	    -15.95130735	    -11.23372351	      0.24045734	      7.43988107	     10.69734078	     -4.00604133	     16.70969664
      3.97500000	     -8.91713388	      6.83399654	    -10.75472481	     -2.24076665	     -0.02756780	      0.44476126	     -1.73632458	     -8.44672330	      4.66398943	    -32.69689203	    -18.04635229	      9.00075707	     24.12399793	     28.29130619	      4.67053729	      0.97831928	    -16.69694792	    -10.75320951	     -0.26772505	      6.68162972	     10.71132487	     -4.22650130	     16.67884265
      3.98000000	     -8.96042462	      7.02227556	    -10.55669525	     -2.23428691	     -0.02760250	      0.44404051	     -0.86447578	     -8.62929043	      4.62138725	    -34.48975742	    -19.85070479	      8.41791187	     24.60390831	     28.31356974	      5.10535590	      1.25032416	    -17.46812843	    -10.03674516	     -0.40133942	      5.90759873	     10.75499830	     -4.50946140	     16.56055612
      3.98500000	     -8.94092355	      7.22180674	    -10.38975079	     -2.22777914	     -0.02753146	      0.44340794	     -0.01387768	     -8.82199123	      4.60454316	    -36.34083466	    -21.64622045	      7.78421319	     24.64764143	     28.19131203	      5.53832705	      1.43300136	    -18.06926869	     -9.41013274	     -0.54119956	      5.56319758	     10.74820025	     -4.80957806	     16.44202404
      3.99000000	     -8.95490053	      7.44206843	    -10.19171341	     -2.22141131	     -0.02755710	      0.44276446	      0.94156390	     -9.02902714	      4.50967894	    -38.29129672	    -23.30882142	      6.99518783	     24.58192360	     28.08536462	      5.98529397	      1.59890113	    -18.61676546	     -8.71845229	     -0.52618401	      5.33992238	     10.75798310	     -5.13314024	     16.29896600
